<svg xmlns="http://www.w3.org/2000/svg" aria-hidden="true" focusable="false" aria-labelledby="icontitle icondesc" width="375" viewBox="0 0 375 375" height="375" version="1.0">
    <title id="icontitle">Chosen Elite</title>
    <desc id="icondesc">
        Team Chosen Elite Logo
    </desc>
<defs><clipPath id="a"><path d="M 74.121094 149 L 103 149 L 103 175 L 74.121094 175 Z M 74.121094 149"/></clipPath><clipPath id="b"><path d="M 91 131.449219 L 118 131.449219 L 118 160 L 91 160 Z M 91 131.449219"/></clipPath><clipPath id="c"><path d="M 74.121094 173 L 116 173 L 116 211 L 74.121094 211 Z M 74.121094 173"/></clipPath><clipPath id="d"><path d="M 116 131.449219 L 153 131.449219 L 153 173 L 116 173 Z M 116 131.449219"/></clipPath><clipPath id="e"><path d="M 91 186 L 129 186 L 129 227.449219 L 91 227.449219 Z M 91 186"/></clipPath><clipPath id="f"><path d="M 127 199 L 153 199 L 153 227.449219 L 127 227.449219 Z M 127 199"/></clipPath><clipPath id="g"><path d="M 142 184 L 170.121094 184 L 170.121094 211 L 142 211 Z M 142 184"/></clipPath><clipPath id="h"><path d="M 129 149 L 170.121094 149 L 170.121094 186 L 129 186 Z M 129 149"/></clipPath><clipPath id="i"><path d="M 110 97 L 118 97 L 118 112 L 110 112 Z M 110 97"/></clipPath><clipPath id="j"><path d="M 104.6875 87.457031 L 153.691406 98.570312 L 145.234375 135.875 L 96.226562 124.761719 Z M 104.6875 87.457031"/></clipPath><clipPath id="k"><path d="M 104.6875 87.457031 L 153.691406 98.570312 L 145.234375 135.875 L 96.226562 124.761719 Z M 104.6875 87.457031"/></clipPath><clipPath id="l"><path d="M 133 102 L 141 102 L 141 116 L 133 116 Z M 133 102"/></clipPath><clipPath id="m"><path d="M 104.6875 87.457031 L 153.691406 98.570312 L 145.234375 135.875 L 96.226562 124.761719 Z M 104.6875 87.457031"/></clipPath><clipPath id="n"><path d="M 104.6875 87.457031 L 153.691406 98.570312 L 145.234375 135.875 L 96.226562 124.761719 Z M 104.6875 87.457031"/></clipPath><clipPath id="o"><path d="M 100 93 L 152 93 L 152 135 L 100 135 Z M 100 93"/></clipPath><clipPath id="p"><path d="M 104.6875 87.457031 L 153.691406 98.570312 L 145.234375 135.875 L 96.226562 124.761719 Z M 104.6875 87.457031"/></clipPath><clipPath id="q"><path d="M 104.6875 87.457031 L 153.691406 98.570312 L 145.234375 135.875 L 96.226562 124.761719 Z M 104.6875 87.457031"/></clipPath></defs><path fill="#39FF14" d="M 109.644531 125.347656 C 79.820312 125.347656 55.644531 149.527344 55.644531 179.347656 C 55.644531 209.171875 79.820312 233.347656 109.644531 233.347656 C 139.464844 233.347656 163.644531 209.171875 163.644531 179.347656 C 163.644531 149.527344 139.464844 125.347656 109.644531 125.347656"/><g clip-path="url(#a)"><path d="M 102.585938 166.714844 L 85.023438 149.15625 C 82.054688 152.785156 79.664062 156.761719 77.859375 161.089844 C 76.050781 165.417969 74.902344 169.914062 74.410156 174.578125 C 75.917969 174.773438 77.429688 174.867188 78.945312 174.867188 C 81.074219 174.867188 83.1875 174.691406 85.285156 174.339844 C 87.382812 173.988281 89.4375 173.464844 91.449219 172.773438 C 93.460938 172.078125 95.398438 171.222656 97.269531 170.207031 C 99.136719 169.191406 100.910156 168.027344 102.585938 166.714844 Z M 102.585938 166.714844"/></g><g clip-path="url(#b)"><path d="M 117.539062 136.273438 C 117.539062 134.757812 117.445312 133.246094 117.25 131.738281 C 112.585938 132.230469 108.089844 133.378906 103.761719 135.1875 C 99.433594 136.992188 95.457031 139.382812 91.828125 142.351562 L 109.386719 159.914062 C 110.699219 158.238281 111.863281 156.46875 112.878906 154.597656 C 113.894531 152.730469 114.75 150.792969 115.445312 148.78125 C 116.136719 146.769531 116.660156 144.714844 117.011719 142.613281 C 117.363281 140.515625 117.539062 138.402344 117.539062 136.273438 Z M 117.539062 136.273438"/></g><g clip-path="url(#c)"><path d="M 109.484375 173.613281 C 107.347656 175.367188 105.074219 176.921875 102.671875 178.28125 C 100.265625 179.644531 97.761719 180.789062 95.160156 181.71875 C 92.558594 182.644531 89.898438 183.34375 87.175781 183.816406 C 84.453125 184.285156 81.707031 184.519531 78.945312 184.515625 C 77.402344 184.515625 75.808594 184.417969 74.316406 184.324219 C 74.78125 189.074219 75.925781 193.65625 77.75 198.070312 C 79.574219 202.480469 81.996094 206.535156 85.023438 210.226562 L 115.5625 179.691406 Z M 109.484375 173.613281"/></g><g clip-path="url(#d)"><path d="M 116.285156 166.8125 L 122.363281 172.839844 L 152.898438 142.304688 C 149.199219 139.296875 145.144531 136.882812 140.730469 135.066406 C 136.320312 133.25 131.742188 132.109375 126.996094 131.644531 C 127.089844 133.136719 127.1875 134.730469 127.1875 136.273438 C 127.191406 139.039062 126.957031 141.78125 126.488281 144.503906 C 126.015625 147.226562 125.316406 149.886719 124.390625 152.488281 C 123.460938 155.09375 122.316406 157.59375 120.953125 160 C 119.59375 162.40625 118.035156 164.675781 116.285156 166.8125 Z M 116.285156 166.8125"/></g><g clip-path="url(#e)"><path d="M 128.441406 192.570312 L 122.363281 186.542969 L 91.828125 217.03125 C 95.519531 220.054688 99.574219 222.480469 103.984375 224.304688 C 108.398438 226.128906 112.980469 227.273438 117.730469 227.738281 C 117.636719 226.246094 117.539062 224.652344 117.539062 223.109375 C 117.535156 220.34375 117.769531 217.601562 118.238281 214.878906 C 118.707031 212.15625 119.410156 209.496094 120.335938 206.894531 C 121.265625 204.289062 122.410156 201.789062 123.773438 199.382812 C 125.132812 196.976562 126.6875 194.707031 128.441406 192.570312 Z M 128.441406 192.570312"/></g><g clip-path="url(#f)"><path d="M 127.1875 223.109375 C 127.1875 224.625 127.28125 226.136719 127.476562 227.644531 C 132.136719 227.148438 136.628906 226.003906 140.953125 224.207031 C 145.28125 222.410156 149.261719 220.03125 152.898438 217.078125 L 135.292969 199.46875 C 132.667969 202.851562 130.660156 206.566406 129.273438 210.617188 C 127.886719 214.664062 127.191406 218.828125 127.1875 223.109375 Z M 127.1875 223.109375"/></g><g clip-path="url(#g)"><path d="M 142.140625 192.621094 L 159.75 210.226562 C 162.703125 206.589844 165.078125 202.609375 166.878906 198.285156 C 168.675781 193.957031 169.820312 189.464844 170.316406 184.804688 C 168.808594 184.609375 167.296875 184.515625 165.78125 184.515625 C 161.5 184.519531 157.335938 185.214844 153.285156 186.601562 C 149.238281 187.988281 145.523438 189.996094 142.140625 192.621094 Z M 142.140625 192.621094"/></g><g clip-path="url(#h)"><path d="M 135.242188 185.769531 C 137.378906 184.015625 139.648438 182.460938 142.054688 181.101562 C 144.460938 179.738281 146.960938 178.59375 149.566406 177.664062 C 152.167969 176.738281 154.828125 176.039062 157.550781 175.566406 C 160.273438 175.097656 163.015625 174.863281 165.78125 174.867188 C 167.324219 174.867188 168.914062 174.964844 170.410156 175.058594 C 169.945312 170.3125 168.800781 165.734375 166.988281 161.324219 C 165.171875 156.910156 162.757812 152.855469 159.75 149.15625 L 129.214844 179.691406 Z M 135.242188 185.769531"/></g><path stroke-linecap="round" transform="matrix(3.7704 0 0 3.75 17.474 129.575)" fill="none" d="M 0.500025 -0.000263451 L 15.017952 -0.000263451" stroke="#39FF14"/><path stroke-linecap="round" transform="matrix(3.78088 0 0 3.75 17.474 153.38)" fill="none" d="M 0.499671 -0.0000846075 L 8.228732 -0.0000846075" stroke="#39FF14"/><path stroke-linecap="round" transform="matrix(3.80753 -.02791 .02749 3.7499 17.488 181.532)" fill="none" d="M 0.499742 0.0005092 L 5.802758 0.000394689" stroke="#39FF14"/><path stroke-linecap="round" transform="matrix(3.78088 0 0 3.75 17.474 207.338)" fill="none" d="M 0.499671 0.000480151 L 8.228732 0.000480151" stroke="#39FF14"/><path stroke-linecap="round" transform="matrix(3.77405 0 0 3.75 17.474 231.743)" fill="none" d="M 0.49954 -0.000181035 L 14.605933 -0.000181035" stroke="#39FF14"/><g clip-path="url(#i)"><g clip-path="url(#j)"><g clip-path="url(#k)"><path fill="#39FF14" d="M 114.171875 111.117188 L 117.609375 106.324219 L 115.570312 97.246094 L 110.34375 105.023438 L 114.171875 111.117188"/></g></g></g><g clip-path="url(#l)"><g clip-path="url(#m)"><g clip-path="url(#n)"><path fill="#39FF14" d="M 134.859375 115.808594 L 133.824219 110 L 139.582031 102.691406 L 140.9375 111.960938 L 134.859375 115.808594"/></g></g></g><g clip-path="url(#o)"><g clip-path="url(#p)"><g clip-path="url(#q)"><path fill="#39FF14" d="M 133.734375 118.542969 L 129.1875 93.015625 L 114.078125 114.085938 L 102.746094 96.035156 L 100.824219 125.804688 L 104.929688 107.695312 L 114.140625 122.359375 L 126.417969 105.242188 L 130.109375 125.980469 L 144.742188 116.722656 L 140.636719 134.835938 L 151.742188 107.148438 L 133.734375 118.542969"/></g></g></g><path transform="matrix(.75 0 0 .75 163.915 167.213)" fill="none" d="M 33.123657 87.002403 L 33.123657 62.861776 C 33.123657 56.924276 31.368449 53.955526 27.852823 53.955526 C 25.352823 53.955526 23.509073 55.002401 22.326781 57.096151 C 21.139281 59.195109 20.545531 62.679485 20.545531 67.549277 L 20.545531 87.002403 L 5.274697 87.002403 L 5.274697 26.221149 L 20.545531 26.221149 L 20.545531 34.851358 C 20.545531 38.757608 20.337198 43.210733 19.920531 48.210734 L 20.623656 48.210734 C 22.08199 45.919067 23.816365 44.304483 25.821573 43.366983 C 27.826782 42.429483 30.154907 41.960733 32.811157 41.960733 C 37.759074 41.960733 41.608033 43.387817 44.358033 46.236775 C 47.102825 49.090942 48.477825 53.080526 48.477825 58.210734 L 48.477825 87.002403 Z M 101.134078 64.773235 C 101.134078 72.012819 99.186161 77.658652 95.295536 81.705528 C 91.399703 85.757611 85.951786 87.783653 78.946577 87.783653 C 72.227826 87.783653 66.884076 85.710736 62.910117 81.570111 C 58.941367 77.429486 56.951784 71.830527 56.951784 64.773235 C 56.951784 57.559693 58.8997 51.955526 62.795534 47.955525 C 66.686159 43.960733 72.149701 41.960733 79.180952 41.960733 C 83.52991 41.960733 87.368452 42.887817 90.701786 44.736775 C 94.035119 46.585734 96.608036 49.231567 98.420536 52.684692 C 100.227828 56.132609 101.134078 60.16386 101.134078 64.773235 Z M 72.462201 64.773235 C 72.462201 68.575318 72.96741 71.471152 73.983035 73.465944 C 74.99866 75.455527 76.706993 76.455527 79.102827 76.455527 C 81.472619 76.455527 83.144494 75.455527 84.12366 73.465944 C 85.097619 71.471152 85.587202 68.575318 85.587202 64.773235 C 85.587202 60.997193 85.09241 58.148234 84.102827 56.221151 C 83.113244 54.294067 81.420535 53.330526 79.024702 53.330526 C 76.680952 53.330526 74.99866 54.283651 73.983035 56.200318 C 72.96741 58.111776 72.462201 60.971151 72.462201 64.773235 Z M 144.024706 73.408652 C 144.024706 78.148236 142.410123 81.726361 139.180956 84.148236 C 135.951789 86.570111 131.316372 87.783653 125.274705 87.783653 C 121.993455 87.783653 119.139288 87.60657 116.717413 87.252403 C 114.295537 86.903445 111.821579 86.257611 109.295537 85.320111 L 109.295537 73.096152 C 111.665329 74.137819 114.264287 74.997194 117.092413 75.674277 C 119.915329 76.351361 122.436163 76.689902 124.649705 76.689902 C 127.956997 76.689902 129.608038 75.934694 129.608038 74.424277 C 129.608038 73.643027 129.149705 72.94511 128.222622 72.330527 C 127.300747 71.721152 124.608038 70.528444 120.154913 68.75761 C 116.092413 67.090943 113.253871 65.19511 111.639287 63.075318 C 110.024704 60.950318 109.217412 58.262818 109.217412 55.007609 C 109.217412 50.893026 110.805954 47.6899 113.983037 45.398234 C 117.160121 43.106567 121.654913 41.960733 127.462205 41.960733 C 130.378872 41.960733 133.118455 42.278442 135.686164 42.919067 C 138.248664 43.554483 140.910122 44.486775 143.670539 45.710734 L 139.529914 55.554484 C 137.498664 54.643026 135.35283 53.866984 133.087205 53.231567 C 130.82158 52.590942 128.972622 52.273234 127.54033 52.273234 C 125.04033 52.273234 123.79033 52.887817 123.79033 54.111776 C 123.79033 54.866984 124.22783 55.507609 125.097621 56.044068 C 125.972621 56.575318 128.488247 57.663859 132.654914 59.304484 C 135.753872 60.580526 138.066372 61.830526 139.592414 63.054485 C 141.113247 64.278443 142.233039 65.715943 142.951789 67.372193 C 143.665331 69.023235 144.024706 71.03886 144.024706 73.408652 Z M 173.868458 87.783653 C 166.498666 87.783653 160.774707 85.820111 156.70179 81.903444 C 152.623665 77.981569 150.587206 72.403444 150.587206 65.16386 C 150.587206 57.689901 152.472623 51.955526 156.248665 47.955525 C 160.024707 43.960733 165.415332 41.960733 172.420541 41.960733 C 179.087208 41.960733 184.23825 43.700317 187.873667 47.174275 C 191.503876 50.653442 193.321584 55.658651 193.321584 62.19511 L 193.321584 68.991985 L 166.014291 68.991985 C 166.118457 71.465944 167.024708 73.408652 168.733041 74.814902 C 170.436166 76.221152 172.759083 76.924277 175.701791 76.924277 C 178.384083 76.924277 180.852833 76.669069 183.108042 76.158652 C 185.358042 75.653444 187.800751 74.78886 190.430959 73.564902 L 190.430959 84.538861 C 188.035126 85.76282 185.561167 86.611778 183.009084 87.080528 C 180.457 87.549278 177.410125 87.783653 173.868458 87.783653 Z M 172.967416 52.351359 C 171.170541 52.351359 169.670541 52.919067 168.456999 54.049276 C 167.248666 55.184693 166.535124 56.960734 166.326791 59.382609 L 179.451792 59.382609 C 179.399708 57.247193 178.795542 55.544068 177.639292 54.268026 C 176.477833 52.991984 174.920541 52.351359 172.967416 52.351359 Z M 229.884087 87.002403 L 229.884087 62.861776 C 229.884087 59.919068 229.462212 57.695109 228.613253 56.200318 C 227.769503 54.700317 226.40492 53.955526 224.52992 53.955526 C 221.951794 53.955526 220.092419 54.981568 218.946586 57.038859 C 217.800753 59.096151 217.227836 62.627401 217.227836 67.627402 L 217.227836 87.002403 L 201.951793 87.002403 L 201.951793 42.741983 L 213.477836 42.741983 L 215.389294 48.210734 L 216.290336 48.210734 C 217.592419 46.1274 219.394503 44.5649 221.701794 43.523233 C 224.003878 42.481567 226.65492 41.960733 229.649712 41.960733 C 234.545545 41.960733 238.352837 43.382608 241.076796 46.22115 C 243.795546 49.059692 245.154921 53.054484 245.154921 58.210734 L 245.154921 87.002403 Z M 229.884087 87.002403" stroke="#39FF14" stroke-width="3"/><g fill="#39FF14"><g><g><path d="M 17 0 L 1.03125 0 L 7.078125 -28.5625 L 23.046875 -28.5625 L 22 -23.59375 L 12 -23.59375 L 10.6875 -17.328125 L 20 -17.328125 L 18.921875 -12.359375 L 9.609375 -12.359375 L 8.046875 -5 L 18.046875 -5 Z M 17 0" transform="translate(188.51 272.368)"/></g></g></g><g fill="#39FF14"><g><g><path d="M 6.609375 0 L 0.71875 0 L 7.171875 -30.390625 L 13.046875 -30.390625 Z M 6.609375 0" transform="translate(218.187 272.368)"/></g></g></g><g fill="#39FF14"><g><g><path d="M 6.296875 -26.953125 C 6.296875 -28.085938 6.601562 -28.941406 7.21875 -29.515625 C 7.832031 -30.097656 8.707031 -30.390625 9.84375 -30.390625 C 10.789062 -30.390625 11.507812 -30.1875 12 -29.78125 C 12.5 -29.382812 12.75 -28.804688 12.75 -28.046875 C 12.75 -27.003906 12.460938 -26.160156 11.890625 -25.515625 C 11.316406 -24.867188 10.429688 -24.546875 9.234375 -24.546875 C 7.273438 -24.546875 6.296875 -25.347656 6.296875 -26.953125 Z M 6.609375 0 L 0.71875 0 L 5.359375 -21.84375 L 11.234375 -21.84375 Z M 6.609375 0" transform="translate(238.06 272.368)"/></g></g></g><g fill="#39FF14"><g><g><path d="M 10.046875 -4.359375 C 10.890625 -4.359375 11.941406 -4.585938 13.203125 -5.046875 L 13.203125 -0.640625 C 11.753906 0.046875 10.023438 0.390625 8.015625 0.390625 C 6.054688 0.390625 4.617188 -0.0195312 3.703125 -0.84375 C 2.785156 -1.664062 2.328125 -2.9375 2.328125 -4.65625 C 2.328125 -5.300781 2.40625 -6.03125 2.5625 -6.84375 L 4.8125 -17.359375 L 1.84375 -17.359375 L 2.40625 -20.234375 L 6.234375 -21.875 L 8.8125 -26.484375 L 12.59375 -26.484375 L 11.640625 -21.84375 L 17.171875 -21.84375 L 16.1875 -17.359375 L 10.6875 -17.359375 L 8.4375 -6.84375 C 8.363281 -6.445312 8.328125 -6.097656 8.328125 -5.796875 C 8.328125 -4.835938 8.898438 -4.359375 10.046875 -4.359375 Z M 10.046875 -4.359375" transform="translate(257.934 272.368)"/></g></g></g><g fill="#39FF14"><g><g><path d="M 13.59375 -18.015625 C 12.445312 -18.015625 11.363281 -17.492188 10.34375 -16.453125 C 9.332031 -15.410156 8.671875 -14.140625 8.359375 -12.640625 L 9.234375 -12.640625 C 11.253906 -12.640625 12.828125 -12.953125 13.953125 -13.578125 C 15.078125 -14.210938 15.640625 -15.070312 15.640625 -16.15625 C 15.640625 -17.394531 14.957031 -18.015625 13.59375 -18.015625 Z M 10.390625 0.390625 C 7.660156 0.390625 5.539062 -0.34375 4.03125 -1.8125 C 2.519531 -3.289062 1.765625 -5.367188 1.765625 -8.046875 C 1.765625 -10.742188 2.300781 -13.203125 3.375 -15.421875 C 4.445312 -17.640625 5.898438 -19.332031 7.734375 -20.5 C 9.566406 -21.664062 11.644531 -22.25 13.96875 -22.25 C 16.269531 -22.25 18.066406 -21.71875 19.359375 -20.65625 C 20.648438 -19.59375 21.296875 -18.140625 21.296875 -16.296875 C 21.296875 -13.859375 20.207031 -11.976562 18.03125 -10.65625 C 15.851562 -9.332031 12.75 -8.671875 8.71875 -8.671875 L 7.71875 -8.671875 L 7.671875 -8.265625 L 7.671875 -7.875 C 7.671875 -6.6875 8.003906 -5.75 8.671875 -5.0625 C 9.347656 -4.382812 10.3125 -4.046875 11.5625 -4.046875 C 12.695312 -4.046875 13.722656 -4.164062 14.640625 -4.40625 C 15.566406 -4.65625 16.691406 -5.09375 18.015625 -5.71875 L 18.015625 -1.296875 C 15.773438 -0.171875 13.234375 0.390625 10.390625 0.390625 Z M 10.390625 0.390625" transform="translate(282.34 272.368)"/></g></g></g></svg>